<svg id="Layer_1" data-name="Layer 1" xmlns="http://www.w3.org/2000/svg" viewBox="0 0 682 139.5"><defs><style>.cls-1{fill:#fff;}.cls-2{fill:none;stroke:#fff;stroke-miterlimit:10;stroke-width:2px;}</style></defs><title>Untitled-1</title><path class="cls-1" d="M194.68,194.37V137.74H220c4.7,0,8.41,4.89,8.41,10.77V183.6c0,5.88-3.7,10.77-8.41,10.77Zm24.06-6.28c2.47,0,4.4-2.59,4.4-5.58V149.6c0-3-1.93-5.58-4.4-5.58H199.93v44.07Z" transform="translate(-193.5 -104.5)"/><path class="cls-1" d="M237.25,161c0-5.28,3.39-9.57,7.48-9.57h12.49c4.24,0,7.48,4.29,7.48,9.57v13H242v11c0,2.49,1.62,4.69,3.62,4.69h10.87c2,0,3.7-2.19,3.7-4.69V180h4.47v5.78c0,5.18-3.24,9.57-7.48,9.57H244.73c-4.09,0-7.48-4.39-7.48-9.57Zm23,8.37v-7.48c0-2.49-1.7-4.69-3.7-4.69H245.66c-2,0-3.62,2.19-3.62,4.69v7.48Z" transform="translate(-193.5 -104.5)"/><path class="cls-1" d="M271.65,201.75a9.83,9.83,0,0,1,2.08-6.28l3.24-3.89c-2.08-.9-3.63-3.49-3.63-6.48a8,8,0,0,1,1.47-4.69,10.48,10.48,0,0,1-3.16-7.88V162c0-5.18,3.32-9.57,7.48-9.57h20.05v4.39l-3.55.6a7.42,7.42,0,0,1,1.93,5.28v9.87c0,5.28-3.24,9.57-7.4,9.57H279.28a4,4,0,0,1-1.54-.3,4.5,4.5,0,0,0-.85,2.69,3.55,3.55,0,0,0,1.93,3.39l15.58,4.49c3.09.9,5.09,4.29,5.09,8.47v6.58c0,5.28-3.24,9.57-7.4,9.57h-13c-4.16,0-7.48-4.29-7.48-9.57Zm8.1,9.47h11.41c2,0,3.62-2.19,3.62-4.69v-5.28c0-2.49-1.08-4-2.55-4.49L280.59,193l-3,4.09a5.81,5.81,0,0,0-1.54,4.19v5.28C276,209,277.74,211.22,279.74,211.22Zm.31-33.9h9.1c2,0,3.62-2.19,3.62-4.69V163c0-2.49-1.62-4.69-3.62-4.69h-9.1c-2,0-3.55,2.19-3.55,4.69v9.67C276.51,175.13,278,177.32,280.05,177.32Z" transform="translate(-193.5 -104.5)"/><path class="cls-1" d="M306,152.4h4.47l.39,4.79c1.08-2.79,3.39-4.79,6-4.79h4.4v5.88h-5.4c-2.78,0-4.94,2.79-4.94,6.38v29.71H306Z" transform="translate(-193.5 -104.5)"/><path class="cls-1" d="M326.32,161c0-5.28,3.39-9.57,7.48-9.57H346.3c4.24,0,7.48,4.29,7.48,9.57v13H331.1v11c0,2.49,1.62,4.69,3.62,4.69H345.6c2,0,3.7-2.19,3.7-4.69V180h4.47v5.78c0,5.18-3.24,9.57-7.48,9.57H333.8c-4.09,0-7.48-4.39-7.48-9.57Zm23,8.37v-7.48c0-2.49-1.7-4.69-3.7-4.69H334.73c-2,0-3.62,2.19-3.62,4.69v7.48Z" transform="translate(-193.5 -104.5)"/><path class="cls-1" d="M361.87,161c0-5.28,3.39-9.57,7.48-9.57h12.49c4.24,0,7.48,4.29,7.48,9.57v13H366.65v11c0,2.49,1.62,4.69,3.62,4.69h10.87c2,0,3.7-2.19,3.7-4.69V180h4.47v5.78c0,5.18-3.24,9.57-7.48,9.57H369.35c-4.09,0-7.48-4.39-7.48-9.57Zm23,8.37v-7.48c0-2.49-1.7-4.69-3.7-4.69H370.28c-2,0-3.62,2.19-3.62,4.69v7.48Z" transform="translate(-193.5 -104.5)"/><path class="cls-1" d="M412.46,137.74h20.36c4.7,0,8.41,4.89,8.41,10.77v13.66c0,5.88-3.7,10.77-8.41,10.77H417.63v21.44h-5.17Zm18.74,29.51c2.7,0,4.78-2.89,4.78-6.18V149.8c0-3.29-2.08-6.18-4.78-6.18H417.63v23.63Z" transform="translate(-193.5 -104.5)"/><path class="cls-1" d="M448.17,152.4h4.47l.39,4.79c1.08-2.79,3.39-4.79,6-4.79h4.4v5.88H458c-2.78,0-4.94,2.79-4.94,6.38v29.71h-4.94Z" transform="translate(-193.5 -104.5)"/><path class="cls-1" d="M468.45,161c0-5.18,3.32-9.57,7.4-9.57h13.42c4.09,0,7.48,4.39,7.48,9.57v24.82c0,5.28-3.32,9.57-7.48,9.57H475.85c-4.16,0-7.4-4.29-7.4-9.57Zm8.33,28.61h11.57c2,0,3.63-2.19,3.63-4.69v-23c0-2.49-1.62-4.69-3.63-4.69H476.78c-2,0-3.55,2.19-3.55,4.69v23C473.23,187.39,474.77,189.58,476.78,189.58Z" transform="translate(-193.5 -104.5)"/><path class="cls-1" d="M496.59,211h5c2,0,3.62-2.19,3.62-4.69V152.4h4.94v55c0,5.18-3.32,9.57-7.48,9.57h-6.09Zm8.71-73.28h4.78v7.78h-4.78Z" transform="translate(-193.5 -104.5)"/><path class="cls-1" d="M518.65,161c0-5.28,3.39-9.57,7.48-9.57h12.49c4.24,0,7.48,4.29,7.48,9.57v13H523.43v11c0,2.49,1.62,4.69,3.62,4.69h10.87c2,0,3.7-2.19,3.7-4.69V180h4.47v5.78c0,5.18-3.24,9.57-7.48,9.57H526.13c-4.09,0-7.48-4.39-7.48-9.57Zm23,8.37v-7.48c0-2.49-1.7-4.69-3.7-4.69H527.06c-2,0-3.62,2.19-3.62,4.69v7.48Z" transform="translate(-193.5 -104.5)"/><path class="cls-1" d="M554.2,161c0-5.28,3.39-9.57,7.48-9.57h13c4.24,0,7.48,4.29,7.48,9.57v6h-4.47v-5.08c0-2.49-1.7-4.69-3.7-4.69H562.61c-2,0-3.62,2.19-3.62,4.69v23c0,2.49,1.62,4.69,3.62,4.69h11.34c2,0,3.7-2.19,3.7-4.69v-5.18h4.47v6.08c0,5.18-3.24,9.57-7.48,9.57h-13c-4.09,0-7.48-4.39-7.48-9.57Z" transform="translate(-193.5 -104.5)"/><path class="cls-1" d="M599.93,194.37c-4.09,0-7.4-4.29-7.4-9.57V157.68h-5.78V152.4h5.78l.62-11.76h4.32V152.4h9.41v5.28h-9.41V183.8c0,2.49,1.54,4.69,3.55,4.69h6.71v5.88Z" transform="translate(-193.5 -104.5)"/><path class="cls-1" d="M627.77,137.74h20.36c4.7,0,8.41,4.89,8.41,10.77v13.66c0,5.88-3.7,10.77-8.41,10.77H632.94v21.44h-5.17Zm18.74,29.51c2.7,0,4.78-2.89,4.78-6.18V149.8c0-3.29-2.08-6.18-4.78-6.18H632.94v23.63Z" transform="translate(-193.5 -104.5)"/><path class="cls-1" d="M663.47,152.4h4.47l.39,4.79c1.08-2.79,3.39-4.79,6-4.79h4.4v5.88h-5.4c-2.78,0-4.94,2.79-4.94,6.38v29.71h-4.94Z" transform="translate(-193.5 -104.5)"/><path class="cls-1" d="M683.75,161c0-5.18,3.32-9.57,7.4-9.57h13.42c4.09,0,7.48,4.39,7.48,9.57v24.82c0,5.28-3.32,9.57-7.48,9.57H691.16c-4.16,0-7.4-4.29-7.4-9.57Zm8.33,28.61h11.57c2,0,3.62-2.19,3.62-4.69v-23c0-2.49-1.62-4.69-3.62-4.69H692.08c-2,0-3.55,2.19-3.55,4.69v23C688.54,187.39,690.08,189.58,692.08,189.58Z" transform="translate(-193.5 -104.5)"/><path class="cls-1" d="M720.54,152.4H725l.31,3.79c1.08-2.79,3.47-4.79,6.09-4.79h10.18c4.16,0,7.4,4.39,7.4,9.57v24.82c0,5.28-3.24,9.57-7.4,9.57h-10.1c-2.62,0-4.94-2-6-4.79V216h-4.94Zm9.79,37.39h10.18c2,0,3.62-2.19,3.62-4.69v-23c0-2.59-1.62-4.79-3.62-4.79H730.33c-2.78,0-4.86,2.79-4.86,6.38V183.5C725.47,187,727.56,189.78,730.33,189.78Z" transform="translate(-193.5 -104.5)"/><path class="cls-1" d="M757.48,161c0-5.18,3.32-9.57,7.4-9.57H778.3c4.09,0,7.48,4.39,7.48,9.57v24.82c0,5.28-3.32,9.57-7.48,9.57H764.88c-4.16,0-7.4-4.29-7.4-9.57Zm8.33,28.61h11.57c2,0,3.62-2.19,3.62-4.69v-23c0-2.49-1.62-4.69-3.62-4.69H765.81c-2,0-3.55,2.19-3.55,4.69v23C762.26,187.39,763.8,189.58,765.81,189.58Z" transform="translate(-193.5 -104.5)"/><path class="cls-1" d="M793.49,180.91H798v4c0,2.49,1.7,4.59,3.7,4.59h9.72c2,0,3.62-2.19,3.62-4.69V182a3.82,3.82,0,0,0-2.16-3.69l-15.12-5.58c-2.54-.9-4.32-4.19-4.32-7.68V161c0-5.28,3.39-9.57,7.48-9.57h11.41c4.16,0,7.48,4.29,7.48,9.57v4.89h-4.55v-4c0-2.49-1.7-4.59-3.7-4.59H801.9c-2,0-3.55,2.09-3.55,4.59v2.79a3.86,3.86,0,0,0,2.08,3.69l15.12,5.58c2.62.9,4.32,4.09,4.32,7.68v4.19c0,5.28-3.32,9.57-7.48,9.57H801c-4.09,0-7.48-4.29-7.48-9.57Z" transform="translate(-193.5 -104.5)"/><path class="cls-1" d="M854,194.37h-4.47l-.31-3.69c-1.16,2.69-3.55,4.69-6.17,4.69h-8.33c-4.16,0-7.48-4.39-7.48-9.57v-5.38c0-3.39,1.85-6.38,4.32-7.28l15.42-5.38a3.84,3.84,0,0,0,2.08-3.59v-2.29c0-2.49-1.54-4.69-3.55-4.69H836c-2,0-3.7,2.19-3.7,4.69v4.19h-4.55V161c0-5.28,3.32-9.57,7.48-9.57h11.18c4.16,0,7.56,4.29,7.56,9.57Zm-18.35-4.69h8.79c2.54,0,4.55-2.59,4.55-5.88V171.54a3.43,3.43,0,0,1-1.54,1.1l-13.27,4.89c-1.31.4-2.08,2-2.08,3.69V185C832,187.49,833.59,189.68,835.6,189.68Z" transform="translate(-193.5 -104.5)"/><path class="cls-1" d="M862.43,130.76h4.94V183.7c0,2.49,1.62,4.69,3.62,4.69h3v6h-4.09c-4.16,0-7.48-4.39-7.48-9.57Z" transform="translate(-193.5 -104.5)"/><rect class="cls-2" x="1" y="1" width="680" height="18" rx="4.39" ry="4.39"/><rect class="cls-2" x="1" y="120.5" width="680" height="18" rx="4.39" ry="4.39"/></svg>