<svg xmlns="http://www.w3.org/2000/svg" viewBox="0 0 34.66 45.38"><defs><style>.cls-1{fill:#fff;}</style></defs><title>Asset 40</title><g id="Layer_2" data-name="Layer 2"><g id="Layer_1-2" data-name="Layer 1"><path class="cls-1" d="M5.6,30.18,0,26.31Q4.45,18.4,8.82,18.4a6.88,6.88,0,0,1,5.13,2q3.19,3.16,3.84,3.16a2.3,2.3,0,0,0,1.85-.79,16.54,16.54,0,0,1-5.39-12.33q0-5,2.14-7.62Q18.75,0,23.44,0a9.21,9.21,0,0,1,7.15,2.81q2.26,2.43,2.26,7.62A23,23,0,0,1,30,22.09q4.69,4.78,4.69,10.37,0,6.56-3.84,9.73T20.45,45.38V38.73a7.13,7.13,0,0,0,5.19-1.87Q27,35.51,27,32.4a6.26,6.26,0,0,0-1.85-4.45,9.59,9.59,0,0,1-7.35,3.4,6.57,6.57,0,0,1-5.51-3Q10.63,26,9.46,26,8.09,26,5.6,30.18ZM24.14,17.43a16.19,16.19,0,0,0,1.49-7A8.09,8.09,0,0,0,25,7.06q-.76-1.67-1.73-1.67T21.59,7.06A9.15,9.15,0,0,0,21,10.43,8.62,8.62,0,0,0,24.14,17.43Z"/></g></g></svg>