<svg xmlns="http://www.w3.org/2000/svg" viewBox="0 0 27.19 54.4"><defs><style>.cls-1{fill:#fff;}</style></defs><title>Asset 38</title><g id="Layer_2" data-name="Layer 2"><g id="Layer_1-2" data-name="Layer 1"><path class="cls-1" d="M15.53,54.4H11.4l0-8.82A26.57,26.57,0,0,1,6,44.82a38.82,38.82,0,0,1-5.8-1.93V35.21A31.61,31.61,0,0,0,6.08,38a17.1,17.1,0,0,0,5.32,1V29.33q-5.77-1.14-8.58-3.94A10,10,0,0,1,0,18,10.36,10.36,0,0,1,3,10.2q3-2.9,8.41-3.25V0h4.13l0,6.94a34.94,34.94,0,0,1,4.32.53,38.8,38.8,0,0,1,4.58,1.14v7.5a16.68,16.68,0,0,0-4-1.87,20.75,20.75,0,0,0-4.89-.88v9q5.77.91,8.72,3.94a11.09,11.09,0,0,1,2.94,8.07A10.49,10.49,0,0,1,24,42.25a12.59,12.59,0,0,1-8.45,3.34ZM11.4,21.65V13.36a4.4,4.4,0,0,0-2.74,1.22,3.76,3.76,0,0,0-.92,2.68A4.21,4.21,0,0,0,8.66,20,5.23,5.23,0,0,0,11.4,21.65Zm4.13,8.47V39a4.54,4.54,0,0,0,2.87-1.42,4.27,4.27,0,0,0,1-2.94,4.36,4.36,0,0,0-1-3A4.88,4.88,0,0,0,15.53,30.12Z"/></g></g></svg>