<svg xmlns="http://www.w3.org/2000/svg" viewBox="0 0 175.87 46.44"><defs><style>.cls-1{fill:#7f3f98;}</style></defs><title>Asset 35</title><g id="Layer_2" data-name="Layer 2"><g id="Layer_1-2" data-name="Layer 1"><path class="cls-1" d="M20.65,2.52l-2.78,11h5.95l2.75-11h6.56l-2.84,11h5.65v6.3H28.74l-2.17,8.58h6v6.3H25L22.27,45.59H15.79l2.75-10.93h-6L9.79,45.59H3.31L6.06,34.66H0v-6.3H7.62l2.17-8.58H3.37v-6.3h8l2.75-11Zm1.61,17.26h-6l-2.17,8.58h6Z"/><path class="cls-1" d="M36.06,12.77h7.15l3.9,25.14,3.54-16.55H57.6l3.49,16.55,4-25.14h7.15L66.24,45.59H58.1l-4-17.05-4,17.05H42Z"/><path class="cls-1" d="M103.56,24.29v21.3H95v-20q0-3.54-1-5.07A3.66,3.66,0,0,0,90.73,19a4.13,4.13,0,0,0-3.66,2.07,10.6,10.6,0,0,0-1.32,5.73V45.59H77.23V0h8.53V17.7a8,8,0,0,1,3.11-4.22A9.2,9.2,0,0,1,94.16,12q4.66,0,7,3.09T103.56,24.29Z"/><path class="cls-1" d="M140.77,26.87V45.59h-8.53V41.92a10.33,10.33,0,0,1-4,3.34,12.2,12.2,0,0,1-5.36,1.17q-5.6,0-8.72-3t-3.12-8.26q0-5.74,3.72-8.48T126.3,24h5.95V22.56a3.61,3.61,0,0,0-1.51-3.15,7.65,7.65,0,0,0-4.44-1.07,22.85,22.85,0,0,0-6,.78,28,28,0,0,0-6,2.48V14.27a29.67,29.67,0,0,1,5.77-1.73A33.33,33.33,0,0,1,126.3,12q8,0,11.24,3.25T140.77,26.87Zm-12,3.31q-4.8,0-6.71,1.23a4.63,4.63,0,0,0-1.9,4.22,4.55,4.55,0,0,0,4.89,4.86,6.15,6.15,0,0,0,5.27-2.56,11.94,11.94,0,0,0,1.88-7.16v-.59Z"/><path class="cls-1" d="M164.65,3.46v9.32h11.22v6.59H164.65V34.89A4,4,0,0,0,165.72,38a5.32,5.32,0,0,0,3.56,1h6.59v6.59h-7.21q-7.38,0-10-2.36t-2.61-8.75V19.37h-8.38V12.77h8.38V3.46Z"/></g></g></svg>