<svg xmlns="http://www.w3.org/2000/svg" viewBox="0 0 29.38 44.53"><defs><style>.cls-1{fill:#fff;}</style></defs><title>Asset 45</title><g id="Layer_2" data-name="Layer 2"><g id="Layer_1-2" data-name="Layer 1"><path class="cls-1" d="M28.8,1.7v8A13.18,13.18,0,0,0,25.22,7.9a12.42,12.42,0,0,0-3.93-.63,5.31,5.31,0,0,0-4.56,1.95q-1.45,1.95-1.45,6.17v5.16h9.84v6.59H15.29v9.79H29.38v7.62H0V36.91H6.88V27.13H1.08V20.54h5.8V14.77q0-7.5,3.3-11.13T20.27,0a22.55,22.55,0,0,1,4.51.42A19.79,19.79,0,0,1,28.8,1.7Z"/></g></g></svg>