<svg xmlns="http://www.w3.org/2000/svg" viewBox="0 0 464.3 61.26"><defs><style>.cls-1{fill:#3db54a;}</style></defs><title>Asset 29</title><g id="Layer_2" data-name="Layer 2"><g id="Layer_1-2" data-name="Layer 1"><path class="cls-1" d="M23,5H29.5l-23,49.31H0Z"/><path class="cls-1" d="M45.76,44.15V61.26H37.21V16h8.55v4.92a10.12,10.12,0,0,1,3.54-4.28,9.21,9.21,0,0,1,5.16-1.44,10,10,0,0,1,8.73,4.51Q66.3,24.2,66.3,32.4T63.15,45.18a10.34,10.34,0,0,1-9,4.45,8.49,8.49,0,0,1-4.73-1.36A11.75,11.75,0,0,1,45.76,44.15Zm12-11.81a14.74,14.74,0,0,0-1.58-7.44,4.86,4.86,0,0,0-4.37-2.7,4.92,4.92,0,0,0-4.39,2.7,14.51,14.51,0,0,0-1.61,7.44,14.51,14.51,0,0,0,1.61,7.44,4.92,4.92,0,0,0,4.39,2.7,4.86,4.86,0,0,0,4.37-2.7A14.74,14.74,0,0,0,57.71,32.34Z"/><path class="cls-1" d="M102.66,25a9.22,9.22,0,0,0-3.3-1.93,12.77,12.77,0,0,0-4.15-.64,11.13,11.13,0,0,0-4.76,1,7.14,7.14,0,0,0-3.15,2.77,7.4,7.4,0,0,0-1,2.7,30.24,30.24,0,0,0-.28,4.8V48.78H77.46V16H86v5.1a9.37,9.37,0,0,1,3.87-4.35A11.77,11.77,0,0,1,96,15.18a14,14,0,0,1,6.65,1.67Z"/><path class="cls-1" d="M107.93,32.4q0-7.94,4.12-12.58a14,14,0,0,1,11.06-4.64,14.07,14.07,0,0,1,11.09,4.64q4.12,4.64,4.12,12.58T134.19,45a14.07,14.07,0,0,1-11.09,4.64A14,14,0,0,1,112,45Q107.93,40.34,107.93,32.4Zm15.18-10.25a5.48,5.48,0,0,0-4.83,2.71,13.8,13.8,0,0,0-1.76,7.54,13.8,13.8,0,0,0,1.76,7.54,5.69,5.69,0,0,0,9.7,0,13.8,13.8,0,0,0,1.76-7.54A13.8,13.8,0,0,0,128,24.86,5.5,5.5,0,0,0,123.11,22.15Z"/><path class="cls-1" d="M175,16,164.53,48.78H154L143.53,16h8.7l7,25.61,7-25.61Z"/><path class="cls-1" d="M183.78,16h17V42.19h10.66v6.59H181.49V42.19h10.69V22.56h-8.41Zm8.41-16h8.58V10h-8.58Z"/><path class="cls-1" d="M236.6,20.63V3.19h8.55V48.78H236.6V43.92A10.36,10.36,0,0,1,233,48.19a9.15,9.15,0,0,1-5.14,1.44,10,10,0,0,1-8.73-4.51q-3.11-4.51-3.11-12.71t3.15-12.77a10.34,10.34,0,0,1,9-4.45,8.49,8.49,0,0,1,4.73,1.36A11.81,11.81,0,0,1,236.6,20.63Zm-12,11.84a14.74,14.74,0,0,0,1.58,7.44,4.86,4.86,0,0,0,4.37,2.7A4.92,4.92,0,0,0,235,39.9a14.51,14.51,0,0,0,1.61-7.44A14.51,14.51,0,0,0,235,25a4.92,4.92,0,0,0-4.39-2.7,4.86,4.86,0,0,0-4.37,2.7A14.74,14.74,0,0,0,224.65,32.46Z"/><path class="cls-1" d="M280.93,27.48v21.3H272.4v-20q0-3.57-1-5.11a3.65,3.65,0,0,0-3.3-1.54,4.13,4.13,0,0,0-3.65,2.08A10.65,10.65,0,0,0,263.12,30V48.78h-8.53V16h8.53v4.92a8,8,0,0,1,3.11-4.22,9.2,9.2,0,0,1,5.3-1.49q4.66,0,7,3.09T280.93,27.48Z"/><path class="cls-1" d="M316.76,47.11A18,18,0,0,1,312.1,49a21.81,21.81,0,0,1-5.36.63q-7.59,0-11.87-4.57T290.6,32.4q0-8.12,4.31-12.7t11.89-4.58a20.76,20.76,0,0,1,5.08.62,21.73,21.73,0,0,1,4.88,1.9v7.85A14,14,0,0,0,312.64,23a12.8,12.8,0,0,0-4.64-.86,8,8,0,0,0-6.45,2.67q-2.26,2.67-2.26,7.59T301.55,40A8,8,0,0,0,308,42.6a12.85,12.85,0,0,0,4.66-.83,13.64,13.64,0,0,0,4.1-2.53Z"/><path class="cls-1" d="M354.08,47.17A32.62,32.62,0,0,1,348,49a33.72,33.72,0,0,1-6.56.62q-8.23,0-12.58-4.41t-4.35-12.7q0-8,4.19-12.69t11.43-4.66q7.29,0,11.32,4.32t4,12.17v3.49H333.22q0,3.87,2.29,5.77t6.74,1.9a20.44,20.44,0,0,0,5.83-.85,27.09,27.09,0,0,0,6-2.7Zm-7.27-18.46a7.31,7.31,0,0,0-1.74-5.14,6.6,6.6,0,0,0-5-1.74,6.29,6.29,0,0,0-4.72,1.8,8.22,8.22,0,0,0-2.08,5.11Z"/><path class="cls-1" d="M427.76,25a9.22,9.22,0,0,0-3.3-1.93,12.77,12.77,0,0,0-4.15-.64,11.13,11.13,0,0,0-4.76,1,7.14,7.14,0,0,0-3.15,2.77,7.4,7.4,0,0,0-1,2.7,30.24,30.24,0,0,0-.28,4.8V48.78h-8.58V16h8.58v5.1A9.37,9.37,0,0,1,415,16.71a11.77,11.77,0,0,1,6.09-1.54,14,14,0,0,1,6.65,1.67Z"/><path class="cls-1" d="M436.64,16h17V42.19H464.3v6.59H434.36V42.19H445V22.56h-8.41ZM445,0h8.58V10H445Z"/></g></g></svg>