<svg xmlns="http://www.w3.org/2000/svg" viewBox="0 0 141.45 54.93"><defs><style>.cls-1{fill:#2aaae2;}</style></defs><title>Asset 27</title><g id="Layer_2" data-name="Layer 2"><g id="Layer_1-2" data-name="Layer 1"><path class="cls-1" d="M33.78,41.63H28v-2.4a6.86,6.86,0,0,1-2.62,2.27,8.36,8.36,0,0,1-3.62.72A9.68,9.68,0,0,1,14,38.76a13.62,13.62,0,0,1-2.94-9.14A13.56,13.56,0,0,1,14,20.52a9.69,9.69,0,0,1,7.76-3.44,8.78,8.78,0,0,1,3.66.72A6.37,6.37,0,0,1,28,19.89v-1.2a8.29,8.29,0,0,0-2.18-6.15,8.46,8.46,0,0,0-6.23-2.17,11.76,11.76,0,0,0-9.95,5.36Q5.83,21.09,5.83,29.68q0,9,4.45,14.31a14.7,14.7,0,0,0,11.87,5.32,15.1,15.1,0,0,0,4.54-.69,15.94,15.94,0,0,0,4.22-2.07l2.7,5.16a18,18,0,0,1-5.17,2.42,21.56,21.56,0,0,1-6,.81q-10.25,0-16.35-6.83T0,29.68Q0,18.34,5.48,11.53A17.69,17.69,0,0,1,20,4.72q6.39,0,10.09,3.85t3.71,10.5Zm-5.45-12a8.11,8.11,0,0,0-1.49-5.19,5,5,0,0,0-4.1-1.87,4.92,4.92,0,0,0-4.09,1.88,8.17,8.17,0,0,0-1.48,5.19,8.22,8.22,0,0,0,1.48,5.21,4.92,4.92,0,0,0,4.09,1.88,5,5,0,0,0,4.1-1.87A8.16,8.16,0,0,0,28.33,29.62Z"/><path class="cls-1" d="M35.95,12.77H43.1L47,37.91l3.54-16.55h6.94L61,37.91l4-25.14h7.15L66.12,45.59H58L54,28.54,50,45.59H41.89Z"/><path class="cls-1" d="M103.45,24.29v21.3H94.92v-20q0-3.54-1-5.07A3.66,3.66,0,0,0,90.62,19,4.13,4.13,0,0,0,87,21.08a10.6,10.6,0,0,0-1.32,5.73V45.59H77.11V0h8.53V17.7a8,8,0,0,1,3.11-4.22A9.2,9.2,0,0,1,94,12q4.66,0,7,3.09T103.45,24.29Z"/><path class="cls-1" d="M111.06,29.21q0-7.94,4.12-12.58a15.53,15.53,0,0,1,22.15,0q4.12,4.64,4.12,12.58t-4.12,12.58a15.53,15.53,0,0,1-22.15,0Q111.06,37.15,111.06,29.21ZM126.24,19a5.48,5.48,0,0,0-4.83,2.71,13.8,13.8,0,0,0-1.76,7.54,13.8,13.8,0,0,0,1.76,7.54,5.69,5.69,0,0,0,9.7,0,13.8,13.8,0,0,0,1.76-7.54,13.8,13.8,0,0,0-1.76-7.54A5.5,5.5,0,0,0,126.24,19Z"/></g></g></svg>