<svg xmlns="http://www.w3.org/2000/svg" viewBox="0 0 344.44 58.07"><defs><style>.cls-1{fill:#c1282d;}</style></defs><title>Asset 34</title><g id="Layer_2" data-name="Layer 2"><g id="Layer_1-2" data-name="Layer 1"><path class="cls-1" d="M0,1.85H7.82V21l-1,10.46H1L0,21ZM0,37.29H7.82v8.29H0Z"/><path class="cls-1" d="M42.19,16.05A7.23,7.23,0,0,1,44.65,13a6.45,6.45,0,0,1,3.66-1q4.25,0,5.87,2.93T55.81,27.1V45.59h-7V24.52a13.92,13.92,0,0,0-.56-4.89,2,2,0,0,0-2-1.23,2.08,2.08,0,0,0-2.05,1.26,13.3,13.3,0,0,0-.59,4.86V45.59H36.62V24.52A13.3,13.3,0,0,0,36,19.66,2.08,2.08,0,0,0,34,18.4a2,2,0,0,0-2,1.23,13.92,13.92,0,0,0-.56,4.89V45.59h-7V12.77h6.24v3.4A6.41,6.41,0,0,1,33,13.11,6.14,6.14,0,0,1,36.56,12a6.06,6.06,0,0,1,3.63,1.19A4.71,4.71,0,0,1,42.19,16.05Z"/><path class="cls-1" d="M61,29.21q0-7.94,4.12-12.58A14,14,0,0,1,76.14,12a14.07,14.07,0,0,1,11.09,4.64q4.12,4.64,4.12,12.58T87.23,41.79a14.07,14.07,0,0,1-11.09,4.64,14,14,0,0,1-11.06-4.64Q61,37.15,61,29.21ZM76.14,19a5.48,5.48,0,0,0-4.83,2.71,13.8,13.8,0,0,0-1.76,7.54,13.8,13.8,0,0,0,1.76,7.54,5.69,5.69,0,0,0,9.7,0,13.8,13.8,0,0,0,1.76-7.54A13.8,13.8,0,0,0,81,21.67,5.5,5.5,0,0,0,76.14,19Z"/><path class="cls-1" d="M127.94,21.83a9.22,9.22,0,0,0-3.3-1.93,12.77,12.77,0,0,0-4.15-.64,11.13,11.13,0,0,0-4.76,1A7.14,7.14,0,0,0,112.59,23a7.4,7.4,0,0,0-1,2.7,30.24,30.24,0,0,0-.28,4.8V45.59h-8.58V12.77h8.58v5.1a9.37,9.37,0,0,1,3.87-4.35A11.77,11.77,0,0,1,121.29,12a14,14,0,0,1,6.65,1.67Z"/><path class="cls-1" d="M162.63,44a32.62,32.62,0,0,1-6.09,1.85,33.72,33.72,0,0,1-6.56.62q-8.23,0-12.58-4.41T133,29.33q0-8,4.19-12.69T148.65,12q7.29,0,11.32,4.32t4,12.17V32H141.77q0,3.87,2.29,5.77t6.74,1.9a20.44,20.44,0,0,0,5.83-.85,27.09,27.09,0,0,0,6-2.7Zm-7.27-18.46a7.31,7.31,0,0,0-1.74-5.14,6.6,6.6,0,0,0-5-1.74,6.29,6.29,0,0,0-4.72,1.8,8.22,8.22,0,0,0-2.08,5.11Z"/><path class="cls-1" d="M195.5,13.8v7.5a19.67,19.67,0,0,0-4.94-2.3,17.66,17.66,0,0,0-5.14-.78,9,9,0,0,0-4.34.83,2.68,2.68,0,0,0-1.46,2.48q0,2.34,6.27,3.81l.32.09,2.46.59q4.69,1.11,6.87,3.59a9.76,9.76,0,0,1,2.18,6.69q0,5.07-3.33,7.6t-10,2.53a37.31,37.31,0,0,1-6.06-.51,44.1,44.1,0,0,1-6.3-1.54v-7.5a26.76,26.76,0,0,0,5.79,2.46,20.52,20.52,0,0,0,5.7.85,9.47,9.47,0,0,0,4.57-.88,2.78,2.78,0,0,0,1.55-2.55,3,3,0,0,0-1.1-2.52q-1.1-.88-5.23-1.87l-2.37-.53q-4.92-1.11-7.18-3.49A8.85,8.85,0,0,1,171.5,22a8.78,8.78,0,0,1,3.43-7.38Q178.36,12,184.57,12a34.24,34.24,0,0,1,5.55.45A32.11,32.11,0,0,1,195.5,13.8Z"/><path class="cls-1" d="M213.93,31.9V6.59h-8.7V0h17.29V31.9q0,3.87,1.2,5.48T227.78,39h6.86v6.59h-9.26q-6.12,0-8.79-3.16T213.93,31.9Z"/><path class="cls-1" d="M271,44a32.62,32.62,0,0,1-6.09,1.85,33.72,33.72,0,0,1-6.56.62q-8.23,0-12.58-4.41t-4.35-12.7q0-8,4.19-12.69T257,12q7.29,0,11.32,4.32t4,12.17V32H250.14q0,3.87,2.29,5.77t6.74,1.9a20.44,20.44,0,0,0,5.83-.85,27.09,27.09,0,0,0,6-2.7Zm-7.27-18.46A7.31,7.31,0,0,0,262,20.38a6.6,6.6,0,0,0-5-1.74,6.29,6.29,0,0,0-4.72,1.8,8.22,8.22,0,0,0-2.08,5.11Z"/><path class="cls-1" d="M307.12,44A32.62,32.62,0,0,1,301,45.82a33.72,33.72,0,0,1-6.56.62q-8.23,0-12.58-4.41t-4.35-12.7q0-8,4.19-12.69T293.14,12q7.29,0,11.32,4.32t4,12.17V32H286.26q0,3.87,2.29,5.77t6.74,1.9a20.44,20.44,0,0,0,5.83-.85,27.09,27.09,0,0,0,6-2.7Zm-7.27-18.46a7.31,7.31,0,0,0-1.74-5.14,6.6,6.6,0,0,0-5-1.74,6.29,6.29,0,0,0-4.72,1.8,8.22,8.22,0,0,0-2.08,5.11Z"/><path class="cls-1" d="M323.91,41V58.07h-8.55V12.77h8.55V17.7a10.12,10.12,0,0,1,3.54-4.28A9.21,9.21,0,0,1,332.61,12a10,10,0,0,1,8.73,4.51q3.11,4.51,3.11,12.71T341.29,42a10.34,10.34,0,0,1-9,4.45,8.49,8.49,0,0,1-4.73-1.36A11.75,11.75,0,0,1,323.91,41Zm12-11.81a14.74,14.74,0,0,0-1.58-7.44,4.86,4.86,0,0,0-4.37-2.7,4.92,4.92,0,0,0-4.39,2.7,14.51,14.51,0,0,0-1.61,7.44,14.51,14.51,0,0,0,1.61,7.44,4.92,4.92,0,0,0,4.39,2.7,4.86,4.86,0,0,0,4.37-2.7A14.74,14.74,0,0,0,335.86,29.15Z"/></g></g></svg>