<svg xmlns="http://www.w3.org/2000/svg" viewBox="0 0 36.12 43.74"><defs><style>.cls-1{fill:#fff;}</style></defs><title>Asset 39</title><g id="Layer_2" data-name="Layer 2"><g id="Layer_1-2" data-name="Layer 1"><path class="cls-1" d="M2.46,14.44,2,11H0V6.71H1.44L.56,0H6.62L7.5,6.71h6.65L15,0h6.09L22,6.71h6.68L29.56,0h6l-.88,6.71h1.44V11h-2l-.47,3.46h2.46v4.28h-3l-3.28,25H22.5l-3.34-25H17l-3.34,25H6.39L3,18.72H0V14.44ZM8.06,11l.47,3.46h4.6L13.59,11Zm1.05,7.73,1.73,13.07,1.73-13.07ZM18,11l-.44,3.46h1L18.13,11Zm4.57,0L23,14.44h4.63L28.1,11Zm1.05,7.73,1.73,13.07,1.73-13.07Z"/></g></g></svg>