<svg xmlns="http://www.w3.org/2000/svg" viewBox="0 0 211.7 50.21"><defs><style>.cls-1{fill:#2aaae2;}</style></defs><title>Asset 30</title><g id="Layer_2" data-name="Layer 2"><g id="Layer_1-2" data-name="Layer 1"><path class="cls-1" d="M33.78,36.91H28v-2.4a6.85,6.85,0,0,1-2.62,2.27,8.36,8.36,0,0,1-3.62.72A9.68,9.68,0,0,1,14,34,13.61,13.61,0,0,1,11.1,24.9,13.56,13.56,0,0,1,14,15.81a9.69,9.69,0,0,1,7.76-3.44,8.78,8.78,0,0,1,3.66.72A6.37,6.37,0,0,1,28,15.18V14a8.29,8.29,0,0,0-2.18-6.15,8.46,8.46,0,0,0-6.23-2.17A11.76,11.76,0,0,0,9.68,11Q5.83,16.38,5.83,25q0,9,4.45,14.31a14.7,14.7,0,0,0,11.87,5.32,15.1,15.1,0,0,0,4.54-.69,15.94,15.94,0,0,0,4.22-2.07L33.6,47a18,18,0,0,1-5.17,2.42,21.56,21.56,0,0,1-6,.81q-10.25,0-16.35-6.83T0,25Q0,13.62,5.48,6.81A17.69,17.69,0,0,1,20,0q6.39,0,10.09,3.85t3.71,10.5Zm-5.45-12a8.11,8.11,0,0,0-1.49-5.19,5,5,0,0,0-4.1-1.87,4.92,4.92,0,0,0-4.09,1.88,8.17,8.17,0,0,0-1.48,5.19,8.22,8.22,0,0,0,1.48,5.21A4.92,4.92,0,0,0,22.73,32a5,5,0,0,0,4.1-1.87A8.16,8.16,0,0,0,28.33,24.9Z"/><path class="cls-1" d="M40.63,29.41V8.06h8.58v20q0,3.54,1,5.07a3.66,3.66,0,0,0,3.31,1.52,4.07,4.07,0,0,0,3.62-2.05,10.68,10.68,0,0,0,1.3-5.74V8.06H67V40.87H58.45V36a8,8,0,0,1-3.09,4.22,9.08,9.08,0,0,1-5.26,1.49q-4.69,0-7.08-3.11T40.63,29.41Z"/><path class="cls-1" d="M101.1,9.08v7.5a19.7,19.7,0,0,0-4.94-2.3A17.66,17.66,0,0,0,91,13.51a9,9,0,0,0-4.34.83,2.68,2.68,0,0,0-1.46,2.48q0,2.35,6.27,3.81l.32.09,2.46.59q4.69,1.11,6.87,3.59a9.76,9.76,0,0,1,2.18,6.69q0,5.07-3.33,7.6T90,41.72a37.2,37.2,0,0,1-6.06-.51,44,44,0,0,1-6.3-1.54v-7.5a26.76,26.76,0,0,0,5.79,2.46,20.48,20.48,0,0,0,5.7.85,9.47,9.47,0,0,0,4.57-.88,2.78,2.78,0,0,0,1.55-2.55,3,3,0,0,0-1.1-2.52q-1.1-.88-5.23-1.87l-2.37-.53Q81.62,26,79.37,23.64a8.85,8.85,0,0,1-2.26-6.36A8.78,8.78,0,0,1,80.54,9.9Q84,7.27,90.18,7.27a34.24,34.24,0,0,1,5.55.45A32.21,32.21,0,0,1,101.1,9.08Z"/><path class="cls-1" d="M140.48,39.26a32.62,32.62,0,0,1-6.09,1.85,33.72,33.72,0,0,1-6.56.62q-8.23,0-12.58-4.41t-4.35-12.7q0-8,4.19-12.69T126.5,7.27q7.29,0,11.32,4.32t4,12.17v3.49H119.62q0,3.87,2.29,5.77t6.74,1.9a20.41,20.41,0,0,0,5.83-.85,27.09,27.09,0,0,0,6-2.7ZM133.21,20.8a7.31,7.31,0,0,0-1.74-5.14,6.6,6.6,0,0,0-5-1.74,6.29,6.29,0,0,0-4.72,1.8,8.22,8.22,0,0,0-2.08,5.11Z"/><path class="cls-1" d="M178,17.11a9.22,9.22,0,0,0-3.3-1.93,12.8,12.8,0,0,0-4.15-.64,11.13,11.13,0,0,0-4.76,1,7.14,7.14,0,0,0-3.15,2.77,7.41,7.41,0,0,0-1,2.7,30.24,30.24,0,0,0-.28,4.8V40.87h-8.58V8.06h8.58v5.1a9.37,9.37,0,0,1,3.87-4.35,11.77,11.77,0,0,1,6.09-1.54A14,14,0,0,1,178,8.94Z"/><path class="cls-1" d="M209.47,9.08v7.5a19.7,19.7,0,0,0-4.94-2.3,17.66,17.66,0,0,0-5.14-.78,9,9,0,0,0-4.34.83,2.68,2.68,0,0,0-1.46,2.48q0,2.35,6.27,3.81l.32.09,2.46.59q4.69,1.11,6.87,3.59a9.76,9.76,0,0,1,2.18,6.69q0,5.07-3.33,7.6t-10,2.53a37.2,37.2,0,0,1-6.06-.51,44,44,0,0,1-6.3-1.54v-7.5a26.76,26.76,0,0,0,5.79,2.46,20.48,20.48,0,0,0,5.7.85,9.47,9.47,0,0,0,4.57-.88,2.78,2.78,0,0,0,1.55-2.55,3,3,0,0,0-1.1-2.52q-1.1-.88-5.23-1.87l-2.37-.53Q190,26,187.73,23.64a8.85,8.85,0,0,1-2.26-6.36,8.78,8.78,0,0,1,3.43-7.38q3.43-2.64,9.64-2.64a34.24,34.24,0,0,1,5.55.45A32.21,32.21,0,0,1,209.47,9.08Z"/></g></g></svg>