<svg xmlns="http://www.w3.org/2000/svg" viewBox="0 0 32.64 61.17"><defs><style>.cls-1{fill:#fff;}</style></defs><title>Asset 42</title><g id="Layer_2" data-name="Layer 2"><g id="Layer_1-2" data-name="Layer 1"><path class="cls-1" d="M0,7.65V0H4.63V7.65ZM0,29.06V21.42H4.63v7.65ZM0,50.48V42.83H4.63v7.65ZM9.32,18.34V10.69H14v7.65Zm0,21.42V32.11H14v7.65Zm0,21.42V53.53H14v7.65ZM18.63,7.65V0h4.66V7.65Zm0,21.42V21.42h4.66v7.65Zm0,21.42V42.83h4.66v7.65Zm9.32-32.14V10.69h4.69v7.65Zm0,21.42V32.11h4.69v7.65Zm0,21.42V53.53h4.69v7.65Z"/></g></g></svg>