<svg xmlns="http://www.w3.org/2000/svg" viewBox="0 0 393.66 61.26"><defs><style>.cls-1{fill:#f79421;}</style></defs><title>Asset 33</title><g id="Layer_2" data-name="Layer 2"><g id="Layer_1-2" data-name="Layer 1"><path class="cls-1" d="M33.19,23.82l-12.1,6.53,12.13,6.59L30.64,41.4,19.19,34.48v12.8H14V34.51L8.26,38,2.55,41.4,0,36.94l12.16-6.59L0,23.82l2.52-4.48L14,26.22V13.45h5.19V26.22q2.81-1.67,5.76-3.46l5.7-3.43Z"/><path class="cls-1" d="M47.84,44.15V61.26H39.29V16h8.55v4.92a10.12,10.12,0,0,1,3.54-4.28,9.22,9.22,0,0,1,5.16-1.44,10,10,0,0,1,8.73,4.51q3.11,4.51,3.11,12.71T65.23,45.18a10.34,10.34,0,0,1-9,4.45,8.49,8.49,0,0,1-4.73-1.36A11.75,11.75,0,0,1,47.84,44.15Zm12-11.81a14.74,14.74,0,0,0-1.58-7.44,4.86,4.86,0,0,0-4.37-2.7,4.92,4.92,0,0,0-4.39,2.7,14.52,14.52,0,0,0-1.61,7.44,14.51,14.51,0,0,0,1.61,7.44,4.92,4.92,0,0,0,4.39,2.7,4.86,4.86,0,0,0,4.37-2.7A14.74,14.74,0,0,0,59.79,32.34Z"/><path class="cls-1" d="M104.74,25a9.22,9.22,0,0,0-3.3-1.93,12.8,12.8,0,0,0-4.15-.64,11.15,11.15,0,0,0-4.76,1,7.14,7.14,0,0,0-3.15,2.77,7.41,7.41,0,0,0-1,2.7,30.24,30.24,0,0,0-.28,4.8V48.78H79.54V16h8.58v5.1A9.37,9.37,0,0,1,92,16.71a11.77,11.77,0,0,1,6.09-1.54,14,14,0,0,1,6.65,1.67Z"/><path class="cls-1" d="M110,32.4q0-7.94,4.12-12.58a15.53,15.53,0,0,1,22.15,0q4.12,4.64,4.12,12.58T136.27,45a15.53,15.53,0,0,1-22.15,0Q110,40.34,110,32.4Zm15.18-10.25a5.48,5.48,0,0,0-4.83,2.71,13.8,13.8,0,0,0-1.76,7.54,13.79,13.79,0,0,0,1.76,7.54,5.69,5.69,0,0,0,9.7,0,13.79,13.79,0,0,0,1.76-7.54A13.8,13.8,0,0,0,130,24.86,5.51,5.51,0,0,0,125.19,22.15Z"/><path class="cls-1" d="M177,16,166.61,48.78H156L145.61,16h8.7l7,25.61,7-25.61Z"/><path class="cls-1" d="M185.86,16h17V42.19h10.66v6.59H183.57V42.19h10.69V22.56h-8.41Zm8.41-16h8.58V10h-8.58Z"/><path class="cls-1" d="M238.68,20.63V3.19h8.55V48.78h-8.55V43.92a10.35,10.35,0,0,1-3.56,4.28A9.14,9.14,0,0,1,230,49.63a10,10,0,0,1-8.73-4.51q-3.11-4.51-3.11-12.71t3.15-12.77a10.34,10.34,0,0,1,9-4.45A8.49,8.49,0,0,1,235,16.54,11.81,11.81,0,0,1,238.68,20.63Zm-12,11.84a14.74,14.74,0,0,0,1.58,7.44,4.86,4.86,0,0,0,4.37,2.7,4.92,4.92,0,0,0,4.39-2.7,14.51,14.51,0,0,0,1.61-7.44A14.52,14.52,0,0,0,237.07,25a4.92,4.92,0,0,0-4.39-2.7,4.86,4.86,0,0,0-4.37,2.7A14.74,14.74,0,0,0,226.73,32.46Z"/><path class="cls-1" d="M283.92,47.17A32.62,32.62,0,0,1,277.82,49a33.72,33.72,0,0,1-6.56.62q-8.23,0-12.58-4.41t-4.35-12.7q0-8,4.19-12.69t11.43-4.66q7.29,0,11.32,4.32t4,12.17v3.49H263.06q0,3.87,2.29,5.77t6.74,1.9a20.41,20.41,0,0,0,5.83-.85,27.09,27.09,0,0,0,6-2.7Zm-7.27-18.46a7.31,7.31,0,0,0-1.74-5.14,6.6,6.6,0,0,0-5-1.74,6.29,6.29,0,0,0-4.72,1.8,8.22,8.22,0,0,0-2.08,5.11Z"/><path class="cls-1" d="M319.13,27.48v21.3h-8.53v-20q0-3.57-1-5.11a3.65,3.65,0,0,0-3.3-1.54,4.13,4.13,0,0,0-3.65,2.08A10.65,10.65,0,0,0,301.32,30V48.78h-8.53V16h8.53v4.92a8,8,0,0,1,3.11-4.22,9.2,9.2,0,0,1,5.3-1.49q4.66,0,7,3.09T319.13,27.48Z"/><path class="cls-1" d="M355,47.11A18,18,0,0,1,350.3,49a21.81,21.81,0,0,1-5.36.63q-7.59,0-11.87-4.57T328.8,32.4q0-8.11,4.31-12.7T345,15.12a20.76,20.76,0,0,1,5.08.62,21.73,21.73,0,0,1,4.88,1.9v7.85A14,14,0,0,0,350.84,23a12.82,12.82,0,0,0-4.64-.86,8,8,0,0,0-6.45,2.67q-2.26,2.67-2.26,7.59T339.76,40a8,8,0,0,0,6.45,2.64,12.85,12.85,0,0,0,4.66-.83,13.64,13.64,0,0,0,4.1-2.53Z"/><path class="cls-1" d="M392.29,47.17A32.62,32.62,0,0,1,386.19,49a33.72,33.72,0,0,1-6.56.62q-8.23,0-12.58-4.41t-4.35-12.7q0-8,4.19-12.69t11.43-4.66q7.29,0,11.32,4.32t4,12.17v3.49H371.43q0,3.87,2.29,5.77t6.74,1.9a20.41,20.41,0,0,0,5.83-.85,27.09,27.09,0,0,0,6-2.7ZM385,28.71a7.31,7.31,0,0,0-1.74-5.14,6.6,6.6,0,0,0-5-1.74,6.29,6.29,0,0,0-4.72,1.8,8.22,8.22,0,0,0-2.08,5.11Z"/></g></g></svg>