<svg xmlns="http://www.w3.org/2000/svg" viewBox="0 0 174.7 49.63"><defs><style>.cls-1{fill:#f79421;}</style></defs><title>Asset 31</title><g id="Layer_2" data-name="Layer 2"><g id="Layer_1-2" data-name="Layer 1"><path class="cls-1" d="M33.19,23.82l-12.1,6.53,12.13,6.59L30.64,41.4,19.19,34.48v12.8H14V34.51L8.26,38,2.55,41.4,0,36.94l12.16-6.59L0,23.82l2.52-4.48L14,26.22V13.45h5.19V26.22q2.81-1.67,5.76-3.46l5.7-3.43Z"/><path class="cls-1" d="M67.18,47.17A32.62,32.62,0,0,1,61.08,49a33.72,33.72,0,0,1-6.56.62q-8.23,0-12.58-4.41t-4.35-12.7q0-8,4.19-12.69T53.2,15.18q7.29,0,11.32,4.32t4,12.17v3.49H46.32q0,3.87,2.29,5.77t6.74,1.9A20.41,20.41,0,0,0,61.17,42a27.09,27.09,0,0,0,6-2.7ZM59.91,28.71a7.31,7.31,0,0,0-1.74-5.14,6.6,6.6,0,0,0-5-1.74,6.29,6.29,0,0,0-4.72,1.8,8.22,8.22,0,0,0-2.08,5.11Z"/><path class="cls-1" d="M94.19,20.63V3.19h8.55V48.78H94.19V43.92a10.35,10.35,0,0,1-3.56,4.28,9.14,9.14,0,0,1-5.14,1.44,10,10,0,0,1-8.73-4.51q-3.11-4.51-3.11-12.71T76.8,19.63a10.34,10.34,0,0,1,9-4.45,8.49,8.49,0,0,1,4.73,1.36A11.81,11.81,0,0,1,94.19,20.63Zm-12,11.84a14.74,14.74,0,0,0,1.58,7.44,4.86,4.86,0,0,0,4.37,2.7,4.92,4.92,0,0,0,4.39-2.7,14.51,14.51,0,0,0,1.61-7.44A14.52,14.52,0,0,0,92.58,25a4.92,4.92,0,0,0-4.39-2.7A4.86,4.86,0,0,0,83.82,25,14.74,14.74,0,0,0,82.24,32.46Z"/><path class="cls-1" d="M113.61,16h17V42.19h10.66v6.59H111.33V42.19H122V22.56h-8.41ZM122,0h8.58V10H122Z"/><path class="cls-1" d="M163.48,6.65V16H174.7v6.59H163.48V38.09a4,4,0,0,0,1.07,3.15,5.32,5.32,0,0,0,3.56,1h6.59v6.59h-7.21q-7.38,0-10-2.36t-2.61-8.75V22.56h-8.38V16h8.38V6.65Z"/></g></g></svg>