<svg xmlns="http://www.w3.org/2000/svg" viewBox="0 0 165.44 46.44"><defs><style>.cls-1{fill:#c1282d;}</style></defs><title>Asset 32</title><g id="Layer_2" data-name="Layer 2"><g id="Layer_1-2" data-name="Layer 1"><path class="cls-1" d="M0,1.85H7.82V21l-1,10.46H1L0,21ZM0,37.29H7.82v8.29H0Z"/><path class="cls-1" d="M42.19,3.46v9.32H53.41v6.59H42.19V34.89A4,4,0,0,0,43.26,38a5.32,5.32,0,0,0,3.56,1h6.59v6.59H46.2q-7.38,0-10-2.36T33.6,34.48V19.37H25.22V12.77H33.6V3.46Z"/><path class="cls-1" d="M90.56,26.87V45.59H82V41.92a10.34,10.34,0,0,1-4,3.34,12.2,12.2,0,0,1-5.36,1.17q-5.6,0-8.72-3t-3.12-8.26q0-5.74,3.72-8.48T76.08,24H82V22.56a3.61,3.61,0,0,0-1.51-3.15,7.65,7.65,0,0,0-4.44-1.07,22.85,22.85,0,0,0-6,.78,28,28,0,0,0-6,2.48V14.27a29.61,29.61,0,0,1,5.77-1.73A33.24,33.24,0,0,1,76.08,12q8,0,11.24,3.25T90.56,26.87Zm-12,3.31q-4.8,0-6.71,1.23A4.63,4.63,0,0,0,70,35.63a4.55,4.55,0,0,0,4.89,4.86,6.15,6.15,0,0,0,5.27-2.56A11.94,11.94,0,0,0,82,30.76v-.59Z"/><path class="cls-1" d="M123.25,13.8v7.5a19.67,19.67,0,0,0-4.94-2.3,17.66,17.66,0,0,0-5.14-.78,9,9,0,0,0-4.34.83,2.68,2.68,0,0,0-1.46,2.48q0,2.34,6.27,3.81l.32.09,2.46.59q4.69,1.11,6.87,3.59a9.76,9.76,0,0,1,2.18,6.69q0,5.07-3.33,7.6t-10,2.53a37.31,37.31,0,0,1-6.06-.51,44.1,44.1,0,0,1-6.3-1.54v-7.5a26.76,26.76,0,0,0,5.79,2.46,20.52,20.52,0,0,0,5.7.85,9.47,9.47,0,0,0,4.57-.88,2.78,2.78,0,0,0,1.55-2.55,3,3,0,0,0-1.1-2.52q-1.1-.88-5.23-1.87l-2.37-.53q-4.92-1.11-7.18-3.49A8.85,8.85,0,0,1,99.26,22a8.78,8.78,0,0,1,3.43-7.38Q106.11,12,112.32,12a34.24,34.24,0,0,1,5.55.45A32.11,32.11,0,0,1,123.25,13.8Z"/><path class="cls-1" d="M135.44,0H144V23.94l10.31-11.16h10.4L152.31,25l13.13,20.57h-9.49l-9-15.35L144,33V45.59h-8.58Z"/></g></g></svg>