<svg xmlns="http://www.w3.org/2000/svg" viewBox="0 0 24.38 44.53"><defs><style>.cls-1{fill:#fff;}</style></defs><title>Asset 47</title><g id="Layer_2" data-name="Layer 2"><g id="Layer_1-2" data-name="Layer 1"><path class="cls-1" d="M13.89,32.78H6.06V28.27a12.18,12.18,0,0,1,.91-5A14.57,14.57,0,0,1,10.22,19l2.64-2.61a14.48,14.48,0,0,0,2.5-3A4.9,4.9,0,0,0,16,11a3.44,3.44,0,0,0-1.35-3,6.78,6.78,0,0,0-4-1,14.2,14.2,0,0,0-5.14,1A24.38,24.38,0,0,0,0,11.16V3.31A26,26,0,0,1,5.82.83,21.55,21.55,0,0,1,11.72,0Q17.64,0,21,2.75a9.27,9.27,0,0,1,3.37,7.59,8.87,8.87,0,0,1-1,4.15,19.91,19.91,0,0,1-3.75,4.61l-2.58,2.52a11.9,11.9,0,0,0-2.55,3.16,7.3,7.3,0,0,0-.56,3q0,.26,0,.62t0,.76ZM6.06,36.24h7.82v8.29H6.06Z"/></g></g></svg>