<svg xmlns="http://www.w3.org/2000/svg" viewBox="0 0 317.05 54.35"><defs><style>.cls-1{fill:#3db54a;}</style></defs><title>Asset 28</title><g id="Layer_2" data-name="Layer 2"><g id="Layer_1-2" data-name="Layer 1"><path class="cls-1" d="M23,5H29.5l-23,49.31H0Z"/><path class="cls-1" d="M44.15,35.1V9.79h-8.7V3.19H52.73V35.1q0,3.87,1.2,5.48T58,42.19h6.86v6.59H55.61q-6.12,0-8.79-3.16T44.15,35.1Z"/><path class="cls-1" d="M71.81,32.4q0-7.94,4.12-12.58A14,14,0,0,1,87,15.18a14.07,14.07,0,0,1,11.09,4.64q4.12,4.64,4.12,12.58T98.07,45A14.07,14.07,0,0,1,87,49.63,14,14,0,0,1,75.92,45Q71.81,40.34,71.81,32.4ZM87,22.15a5.48,5.48,0,0,0-4.83,2.71,13.8,13.8,0,0,0-1.76,7.54,13.8,13.8,0,0,0,1.76,7.54,5.69,5.69,0,0,0,9.7,0A13.8,13.8,0,0,0,93.6,32.4a13.8,13.8,0,0,0-1.76-7.54A5.5,5.5,0,0,0,87,22.15Z"/><path class="cls-1" d="M136.14,47.11A18,18,0,0,1,131.48,49a21.81,21.81,0,0,1-5.36.63q-7.59,0-11.87-4.57T110,32.4q0-8.11,4.31-12.7t11.89-4.58a20.76,20.76,0,0,1,5.08.62,21.73,21.73,0,0,1,4.88,1.9v7.85A14,14,0,0,0,132,23a12.8,12.8,0,0,0-4.64-.86,8,8,0,0,0-6.45,2.67q-2.26,2.67-2.26,7.59T120.94,40a8,8,0,0,0,6.45,2.64,12.85,12.85,0,0,0,4.66-.83,13.64,13.64,0,0,0,4.1-2.53Z"/><path class="cls-1" d="M173.64,30.06V48.78h-8.53V45.12a10.33,10.33,0,0,1-4,3.34,12.2,12.2,0,0,1-5.36,1.17q-5.6,0-8.72-3t-3.12-8.26q0-5.74,3.72-8.48t11.51-2.74h5.95V25.75a3.61,3.61,0,0,0-1.51-3.15,7.65,7.65,0,0,0-4.44-1.07,22.85,22.85,0,0,0-6,.78,28,28,0,0,0-6,2.48V17.46A29.67,29.67,0,0,1,153,15.73a33.33,33.33,0,0,1,6.21-.56q8,0,11.24,3.25T173.64,30.06Zm-12,3.31q-4.8,0-6.71,1.23a4.63,4.63,0,0,0-1.9,4.22A4.55,4.55,0,0,0,158,43.68a6.15,6.15,0,0,0,5.27-2.56A11.94,11.94,0,0,0,165.12,34v-.59Z"/><path class="cls-1" d="M197.52,6.65V16h11.22v6.59H197.52V38.09a4,4,0,0,0,1.07,3.15,5.32,5.32,0,0,0,3.56,1h6.59v6.59h-7.21q-7.38,0-10-2.36t-2.61-8.75V22.56h-8.38V16h8.38V6.65Z"/><path class="cls-1" d="M219.9,16h17V42.19h10.66v6.59H217.62V42.19h10.69V22.56H219.9Zm8.41-16h8.58V10h-8.58Z"/><path class="cls-1" d="M252.42,32.4q0-7.94,4.12-12.58a15.53,15.53,0,0,1,22.15,0q4.12,4.64,4.12,12.58T278.69,45a15.53,15.53,0,0,1-22.15,0Q252.42,40.34,252.42,32.4ZM267.6,22.15a5.48,5.48,0,0,0-4.83,2.71A13.8,13.8,0,0,0,261,32.4a13.8,13.8,0,0,0,1.76,7.54,5.69,5.69,0,0,0,9.7,0,13.8,13.8,0,0,0,1.76-7.54,13.8,13.8,0,0,0-1.76-7.54A5.5,5.5,0,0,0,267.6,22.15Z"/><path class="cls-1" d="M317.05,27.48v21.3h-8.53v-20q0-3.57-1-5.11a3.65,3.65,0,0,0-3.3-1.54,4.13,4.13,0,0,0-3.65,2.08A10.65,10.65,0,0,0,299.24,30V48.78h-8.53V16h8.53v4.92a8,8,0,0,1,3.11-4.22,9.2,9.2,0,0,1,5.3-1.49q4.66,0,7,3.09T317.05,27.48Z"/></g></g></svg>