<?xml version="1.0" encoding="utf-8"?>
<!-- Generator: Adobe Illustrator 22.1.0, SVG Export Plug-In . SVG Version: 6.00 Build 0)  -->
<svg version="1.1" id="Layer_1" xmlns="http://www.w3.org/2000/svg" xmlns:xlink="http://www.w3.org/1999/xlink" x="0px" y="0px"
	 viewBox="0 0 1000 850" style="enable-background:new 0 0 1000 850;" xml:space="preserve">
<style type="text/css">
	.st0{fill:#FFFFFF;}
</style>
<path class="st0" d="M795.7,16.9l-7.2,3.2l-11.1,2.7L766,29.2l-5.8,1.8l-5.3,9.6l-2.7,2.1l-0.4,5l2.9-0.4l5.8,0.5l0.9,3.8l1.8,3
	l-0.4,7.8l-5.6,6.7l-4.1,14.8l-1.8,7.8l-2.8,8.3l3.1,4.9l-2.7,5.4l-5.9,1.4l-6.4,7.6l-5,3.7l-8.4-0.4l-8.7-3.4l-6.9,21.8l1,3.4
	l-2.1,2.9l-0.9,9.1l-3.8,3.3l3,6.4l4.5,3.2l3.3-3.7l12.2-2.5l6.5,3l4.1-7.5l10.3-1.9l6.1,3.7l4.4,0.6l2.8,4.2l9.1,5.4l5,9.6
	l-3.2,3.8l-5.7,1.3l-7.3-1.8l-3,1.6l-4.6-0.8l-8.8,7l-4.2-0.8l-1.5,4.3l-7.2,0.9l-5.2,5.3l-2.8,6.6l0,4.3l-8.1,8.5l-15.2,2.1
	l-2.8,5.4l-11.3,11.1l-15.7-0.7l-3.6-3l-9.2-0.3l-6,16.4l10.5,12.6l-3.5,2.8l-3,3.3l-7.5,4.2l-10.8,14.6l-14.6,7.7l-19.6,1.7
	l-6.3,1.6l-8-1.1l-3.1,2.7l-8.8,2.3l-13.8,7.1l-14.2,9.1l-4.6-1.4l-3.2-4.4l-6.4,1.7l-17.7-4.7l-13.4-3.3l-5.6-6.7l-28-4.5L451,299
	l-16.6-3l-14.2-1.2l-14-3.5l-7.8-10.4l-5.4-18l-3.2-2.1l0.1-4.2l-7.5-1.9l-13.2-9.4l-7.8-7.4l-27.4-4l-7.2-3.9l-5.5-1.1l-2.6-3
	l0.7-7.1l6.2-8.5l-1.3-6.6l2.6-3.3l0.5-5.2l-5.7-10.9l-1.5-9.1l-5.1-7.6l-2.8,0.6l-5.4-5.7l-2.9,0.9l-4.2,0l-2.1-2.8l-3.3-7.3
	l-7.1-4.8l0.1-2.8l-3.3-5.6l1.7-2.5l-0.2-4.1l-4.6,1.1l-4.8-2.1l-5.7,1l-0.7,4.6l-2.3,5.4l-7.4,3.2l-7.1-1.2l-5.7,13.1l0.8,10.3
	l-1.5,5.4l-6.5,1.2l-6.2,3l-2.4-2.8l-4.3-2.3l-5.8-0.3l-13.4-7.6l-2,5L195,189.1l-5.3,11l4.3,4.2l-2.9,5.8l-3.6-2.4l-5.8,0.1l-4-5.1
	l-10.9,1.9h-14.6l-3.6,3l8,4.8l-2,3.2l-2.6,10.2l2.7,13.3l-1.1,4.1l0.6,4.5l-5.7,1.6l-0.3,4.1l-5.7,2.2l-0.4,4.9l-2.2,10l-4.3-1.4
	l-3.7,2.3l-8.9,1.5l-14.2,4.2l-7.9,6.8l-10.6-1.1l-9.3-3.5l-7.4,8.2l-5.3,4l-4.4-1.6l-5.2,0.5l-2.2-7.6l-5.7,2.1l-6.7-2.5l-0.3,2.4
	l-9,2.9l-5.6-0.9l-4,3.4l-1.2,7.8l-4.8,0.9l-1.9,4.2l1.9,6.2l-2.9,1.5l1.3,9.1l5.1-2.6l10.2,6.5l-2.5,6.4l0.8,4.5l-0.8,10.5l0.1,5.2
	l-11.4,0.1l-0.2,3.2l5.9,3.9l7.1,1.7l1.8,5.4l5.1,2.1l1.4,8.7l-1.9,5.6l2.9,6.6l4.5,0.9l6.3,7.2l14.2,6.7l0.9,0l0,0.1l0.8-0.1l1.7,0
	l0.7,1.4l-1.2,2l-0.6,1.8l1.1,4.2l0.1,1.6l-0.2,2.2l0.7,1.6l0.2,2.6l-0.2,1.4l1,2.3l2,0.9l3.3,1.5l1.5,1.8l0.7,1.4l1.9,1.1l0.8,1.3
	l-0.4,2.4l-1.2,1.1l-4,0.6l-0.4,2.1l0.1,2.1l0.2,2.2l-0.3,1.7l-1,3.7l0.7,2.8l-0.1,0.4l0.2,0.3l0.1,0.3l0.5,0.5v-0.1l4.9,5.9l0,0.2
	l-1.7-0.8l-0.5,1.5l-0.8,1l-0.3,0.9l0.5,0.8l0.8,0.3l0.6,1.9l-0.5,1.3l-0.7,0.4l0.5,1l0,0.9l-0.7,1.5l0.2,0.9l-0.9,1.1l-0.2,1.4
	l1.2-0.2l1-0.5l-0.1,0.5l-9.2,1.8l-1.6-5.2l-5.1-1l-0.9,6.1l3,7.8l-0.2,0.8l-0.4-0.9l-2-2.5l-1-2.7l-1.3,0.4l0.1,1.7l0.8-0.2
	l1.2,2.1l1.4,2.3l0.4,1.9l0.2-0.2l-0.4,1.1l0.3,4l-1.2,3.8l-0.1,2.5l1.9,1.8l-0.4,0.1l0.9,1.9l0.1,1.8l0.5,1.1l3,1.2h1.3l0.8,0.1
	l3.8,3.7l6.4,1.7l3.2,5l-0.8-1l-0.2,1.4l-0.1,1l1,0.4l0.9,1.2l0.8-0.5l0.4,0.7l7,6.6l5.1,5.7l2.2,4.4l10.4-7l1.2,3.7l4.6,3.2
	l9.2,6.5l4.1,5.8l7.5,5.9l1.8,8.1l4.8,4.6l4.1-5.3l3.7,2.1l-1.1,9.1l12.5,8l5.5-0.5l-0.5,3.2l1,4.7l5.6,1.2l6.6,4.3l1.7,5.1l2.9-3
	l3.1,3.5l2.7,1.2l4.7-2.9l10.2,8.4l5.7-0.9l3.1,2.2l18.8-4.2l4.4,2.5l0.1,3.6l-2.8,6.2l1.1,3.6l1.8-0.2l5.9-6.3l7.1-6l10.1-4.6
	l5.8,2l6.2,6.2l11.5,1.5l7.4,5.2l-1.8,3.8l1,2.8l1.9,2l4.5,0.2l1.5,1.6l-0.2,1.9l-1.8,2.3l0.1,2.1l1.2,0.9l0.6,2.3l-0.2,0.8l3.8,0.1
	l3.9-0.7l3-1l2.7,2.1l3.4,0.1l3.5,0.8l3.4-0.4l1.7,0.3l1-0.3l4.2-0.8l2.3-0.6l0.8-3.3l3.1-2.9l2.7-1.6l2.9-3.1l4-0.8l6.8-1.4l3-1.9
	l2.5-0.6l2.1-1.2l2.1-0.8l1.2-3.5l11.4-3.5l0.6,1.4l1.6,1.1l2.8,0l1.8-0.7l1.3,2.1l1.4,0.2l0.4-0.5l3.5,2.8l3.9,3.2l2.8,1.1l1.4,1.6
	l0.1,1.3l6.8-4.4l0.6-1.9l-0.6-2.5l0.6-2l-0.6,0l3.5-4l3.7-1.3l2.7,3.2l3.9,1.7l2.1,7.2l4.3,9.4l2-2.5l4.5,2.8l-0.8,7.7l0.8,3.4
	L431,656l-3,6.3l1,4.9l-3.2,1.4l-3.4,4.7l-3.1,0.1l-1.6,4.6l-6.2,2.5l-1.7,5.8l0.6,2.4l-3.3,1.1l-1.5,2.5l0.7,5l1.7,1.8l0.8,4.3
	l-2.7,4.4l0.6,2.5l5.3-1.8l2.9-3l9.2-0.6l2.4,1.5l5.1-0.5l-3.6,5.1l2.7,4l1.7,10.9l3.6,3.1l7.9,0.1l0.8,2.8l-3.7,5.6l0.8,4.3
	l-3.1,4.1l-1,4.2l3.6,1.6l2-0.4l10.4,2.5l-0.6,5.1l2.9,3.1l2.9,5.9l2.6-2.6l4.7,2l5-4.1l5.3-1.9l4.7,12l4.8-0.9l4.5,1.1l0.9-10.3
	l-4.7-12.7l3.1-5.8l2.6,1.2l7-0.3l3.8-2.9l3-4.4l6.6,3.2l2.3,3l2,0.2l6.9-7.4l3.3,4.7l2.6-4.6l6.3,6.3l1.8-4.2l3.2-3.2l2.7,2.5
	l3.3-1.6l7.1-2.7l0.2-4.2l9.6-6.5l5.2,5l7.5,4l4.8-1.6l3.2,3.1l4-1.7l5.8,2.1l0.1,3.1l-3.7,2.9l-0.3,3.4l1.6,1.6l1.8,7l6,1.5
	l3.2,3.8l7.4,3l6.8-1.9l3.6,2.4l3.3-1.3l0.5,0.5h2l1-2.2l2.8-0.8v-4.8l2.8-0.8l0.8,3l2.5,3.3l1.5-1.5l2.8,1.5l2.8,0.8l1,4l1.8-1.2
	l6.1-1.3l-1-4.3l1.2-0.2l3,3.8l5.8,0.5l-1.2,2.3l-2.8,4.3l-1,8.1l2.8,0.8l0.5,5.8l4.3,2.3l-1.3,1l0.8,2.5l7.6-0.2l3.5-3.5l0.2-1.5
	l-3.5-3.5l-0.8-3.5l-2.8-1l-1-3.3l2.2-2.3l3.6-2.5l2.5-0.2l3.6-4.8l4-0.2l1.8-2.2l5.6-0.3l1.8-1.5h3.3l3.3-2.3V752l3-1l2.3-1.2h3.3
	h4l0.8-2.3l3.8,1l4.3-3h4l-0.4-5.9l1-2.1l3.4,4.4l3.5-4.6l-1.3-3.2l2.8,2.7l1.5-0.3l1-1.8l-0.2-1.8l-1.4-3.7l-0.4-3.5l-0.8-1.3
	l0.8-2l2,2l2.2-0.2l1,2.4l2.4,2.2l2.8-0.2l-1,3.6l2.5-0.2l1.7,0.4l2.8,0.5l-0.6-1.8l2-1.3l-3.2-2.7l3.4-1.3l2.9,1.3l0.3-3.8l3.5-1.8
	l0.5,3.8l3.3-0.2l1.5-2.5l3.5-3.3l3-0.2l1.2,0.8l0.2,2.3h2.8l0.8-4.3l1-1.3l4,2.3l3.8-2.8l2.3-0.5l3-2.3l4.8-0.8l0.5-5.3l4-1.8
	l-1.5-2.5l-2-0.8l5.8-0.5l3.8-1.8l-2-1.8l1.8-2.5l3.5,0.2l0.8-3.5l2.8,0.5l-1-4.5l3.8,1v-4.3h2.8l2-3.3l2-2l-1.2-2.5l-2.3-2l4-0.8
	l1.8-2.5l3-1.5h4.3l1.3-1.8l1-2.3l-2-1.2l-0.8-2l5.3-0.2l1-1.8l-1.5-2.8l2-1.8l2-1.8l2.3-0.8l-2.3-2.8l0.5-2.8l1.8-2l2.8,1.8
	l2.2,0.5l0.5-1.8l-2.3-3.3l2.3-3.6l-1.3-2.2l0.5-2.3l-1.5-2.5l1.2-4l1.8-2.3l-1-1.8l-3.8-3.3l0.8-2.8l3.3,0.5l1,1.2l0.8-4l3.3-2.3
	l1.5-1.2l0.2-3.5l2-2L854,606h2.5l2.8-3.8l-0.3-3.8l0.3-2.3l1.8-5l1.5-3.5l1.8-1.3l0.5-6.1l3-1.2l0.8,5.1l2.8-3.8l3.3-2.2l-2-4.3
	l-1.8-3l2.8-2.5v-3.5l2.8-3.8l-1-3l1.8-1.5l-1-3.8l-0.5-6.1l-1.8,4.3l-2.8,0.2l3.6-4.8l4.3-3.3l3.5-1.8l-0.5-2.5l-5.6-2.3l-2.3,0.8
	l-1.5,3.6l-2.5,1l-3.3-2.3l-4.5-3.5l-3.8,0.5l-4.8,4.3l-2.5,1l-4.6-0.8l-4-1l-0.8-1.2l3.3-1.8l5.3-0.5l3-1l0.2-3l6.3-5.1l4.5-3.3
	l3.3-4l0.8-4l-3.6-3l-5.3-2l-4.1-2.3l-2-2.2l-4.1-0.8l-4.8-0.8l-0.5-2.8l-3.8-0.8l-4.1,2l-1.5,0.5l1.8-2.8l3.3-1.5l4.8,0.5l1.8,2.5
	l2.8,1h4.8l3.5,0.5l3.5,2l4.6,0.8l2.2-0.5l0.8-1.5l-2.8-3.8l-5.3-4.8l-4.8-1.2l-1.8-5.1l-4.6-1.8l-5-1.3l-1.8-1.2l0.8-3.3l-1.3-3.3
	l-6.1-8.8l-3.8-6.3l-4.8-9.1l-2.5-2.5l-6.6-2l-5.8-1.8l-2.3-2.5l-5.6-1l-0.5-4.6l2.5-2.5l0.5-4.3l1.5-2.3l2-5l3.3-1l0.8-2.5l1.5-4.1
	l2.5-2.2l-2.8-3l1.5-1.5l2.5,1.3l3.3,0.5l2.8-2.8l-0.2-6.1l1.5-2.8l2.3-0.5l4.6-3.8l3.3-2.3l4.3-3.3l2.5-3.3l2.8,0.5l1.2-1.2
	l2.8,2.5l3.3-2.5l-1.2-3.3l1-2.5l-0.2-4.6l-3.3-1.2l-2.8,1.5l-3.3-1.5l-5.1,2l-4,2l-2.3-1l-1.8-2l-2.3,0.5l-4.3-2.8l-3.3-1.5
	l-4.1,1.5l-4.3,3.3l-0.8,4.1l-4.6,4l-0.8,4.3l-3.3,3.6l-7.1-0.8l-5.3-2l-0.8-9.6l-3.3-3.6l-4.8-1.2l-3-2.3l-2.8,1l-3.3,2l-3-2.5
	l-4-3.3l-2.8-5.3l-0.5-6.6l1.8-4.3l4.1-2.8l2.2-0.5l3.6,1.8l2.5-1.3l1.5-1.8h3.5l1.5-1l1.3,0.5l0.8-5.1l1.2-4.6l2.8-4.5l2.5-1.5V333
	l5.3-3.3l6.1-4.6l3-2l0.2-5.1l3.8-5.3l1.5-1.5l0.5-3.3l3.3-2l5-0.2l3.6-2l3,0.8l5,5l2.8,2l-1.8,4l-1.8,4l-1.2,3.8l-4.1,3l-1.8,2
	l-0.2,5.1l-2.3,1.2l3.5,2l2,1.8l3.5-1l-1.5,4.3l-0.5,2.5l-2.8,1.5l-1,2l-2.3,0.2l-1,3.8l1.5,1.8l4.1-3.3l3.5-4l4-2.8l2.3-2.5l1.8-4
	l7.6-6.8l5.3-4.3l2.5-0.2l1.1-2.5l4.6-0.8l2.1-2.1l5.4-0.5l3.5-2.1l1.3-6.5l9.3-11.7l10.8-9.2l7.1-12l0.5-7.8l5.6-3.9l6.8,4.8
	l14.6-1.9l0.4-3.9l-5.3-5.9l0.9-3.3l7.6-1.9l7.2-4.8l1.1-6.5l5.4-1.4l0.5-13.2l4.7-0.8l3.3,5.1l4.7,0.8l-2-2.3l1.8-3.1l4.8-3.5
	l2.4-12l-2.6-2.8l-1.6-11.3l-9.5-16.4l5.2-2.5l5.1-10.6l3.9,1.5l15.4-1.2L981,160l2.8-3.4l0.8-12.5l1.8-4.2l-1.8-5.9l0.5-4
	l-0.6-10.3l-0.9-3.6l1.4-3.4l2.7-2.2l1.3-5.9l-4.6-5.1l-0.1-6.6l-4.8-2.1l-7.7,5.7l-4,5.5l-3.9,0.7l-4.2,3.2l-3.2,7.9l-9.9,4.5
	l-6.9,0.6l-4.7,2.4l-8.4-6.8l1.2-5.1l-5.7-5.8l-1.3-6.2l-5.2,1.8l-14.3-8.6l-4.5,2.2l-8.4-3.8l-5.3,3.4l-6.8,0.4l-6.1-6.1l-1-6.6
	l-3.6-1.5l-1.3-7.2l-9.1-9.4l-0.4-4.3l-9.2-11.5l-1.7-6.1l-4.1-5.8l-4.8-3.7l-2.2-4l-13.2-6.6l-5.6,2.5L795.7,16.9z M683.2,788.6
	l-4.8,2.1l-4.3,1.2l-6.6,0.9l-0.9,1.6l-3.2,0.7l-5.2-0.9l-1.2,0.2l-1.8,0.9v1.8l-1.4,0.7l-3.9-0.2l-2.2,1.4v2.1l2.5,0.2l-1.4,2.3
	l-2.7,0.7l-7.7,5.4l-1.2,2.7l0.7,2.5l-0.9,2.3l0.9,4.8l1.2,3l0.7,4.3l5.3,2.3l4.3,1.9l6.1-0.3l2.1,2l4.5-0.7v-3.6l3.6-0.9l3.2-0.2
	l0.2-1.9l3.6-4.5h2.2l2.3-1.1l0.7-4.6l0.9-6.2l2.7-5.7l2.7-3.8l2.5-2.2l-0.5-3.4l-1.4-3.9v-3.6L683.2,788.6z"/>
</svg>
