mtllib post.mtl
g SketchUp
v -289.611694 494.498108 0.000006
v 399.363190 -465.939453 -0.000005
v -289.611694 -465.939453 -0.000005
v 399.363190 494.498108 0.000006
vt 0.950000 0.318512
vt 0.000000 1.000000
vt 0.000000 0.318512
vt 0.950000 1.000000
vt 0.950000 0.318512
vt 0.950000 1.000000
vt 0.000000 0.318512
vt 0.000000 1.000000
vn 0.000000 0.000000 -1.000000
vn 0.000000 0.000000 -1.000000
vn 0.000000 0.000000 -1.000000
vn 0.000000 0.000000 -1.000000
vn 0.000000 0.000000 1.000000
vn 0.000000 0.000000 1.000000
vn 0.000000 0.000000 1.000000
vn 0.000000 0.000000 1.000000
usemtl material
f 1/1/1 2/2/2 3/3/3
f 2/2/2 1/1/1 4/4/4
usemtl material_0
f 4/5/5 1/6/6 2/7/7
f 3/8/8 2/7/7 1/6/6
